<mxfile host="app.diagrams.net" modified="2023-06-27T16:28:05.999Z" agent="Mozilla/5.0 (Macintosh; Intel Mac OS X 10_15_7) AppleWebKit/537.36 (KHTML, like Gecko) Chrome/114.0.0.0 Safari/537.36" etag="xKZSHzlrC7WEA4TEpmV0" version="21.3.3" type="github">
  <diagram name="Page-1" id="olqSWqRXzHIB4cULuqAW">
    <mxGraphModel dx="1026" dy="607" grid="1" gridSize="10" guides="1" tooltips="1" connect="1" arrows="1" fold="1" page="1" pageScale="1" pageWidth="850" pageHeight="1100" math="0" shadow="0">
      <root>
        <mxCell id="0" />
        <mxCell id="1" parent="0" />
        <mxCell id="9a4tzCcHa9XNULe0p6B0-74" value="" style="whiteSpace=wrap;html=1;aspect=fixed;" vertex="1" parent="1">
          <mxGeometry x="470" y="173" width="307" height="307" as="geometry" />
        </mxCell>
        <mxCell id="9a4tzCcHa9XNULe0p6B0-75" value="" style="whiteSpace=wrap;html=1;aspect=fixed;" vertex="1" parent="1">
          <mxGeometry x="482" y="185" width="305" height="305" as="geometry" />
        </mxCell>
        <mxCell id="9a4tzCcHa9XNULe0p6B0-1" value="" style="html=1;verticalLabelPosition=bottom;align=center;labelBackgroundColor=#ffffff;verticalAlign=top;strokeWidth=2;strokeColor=#0080F0;shadow=0;dashed=0;shape=mxgraph.ios7.icons.smartphone;" vertex="1" parent="1">
          <mxGeometry x="40" y="258" width="18" height="30" as="geometry" />
        </mxCell>
        <mxCell id="9a4tzCcHa9XNULe0p6B0-2" value="" style="endArrow=classic;html=1;rounded=0;entryX=-0.037;entryY=0.069;entryDx=0;entryDy=0;entryPerimeter=0;" edge="1" parent="1" target="9a4tzCcHa9XNULe0p6B0-7">
          <mxGeometry width="50" height="50" relative="1" as="geometry">
            <mxPoint x="58" y="268" as="sourcePoint" />
            <mxPoint x="140" y="218" as="targetPoint" />
          </mxGeometry>
        </mxCell>
        <mxCell id="9a4tzCcHa9XNULe0p6B0-3" value="" style="endArrow=classic;html=1;rounded=0;entryX=0;entryY=0.5;entryDx=0;entryDy=0;" edge="1" parent="1" target="9a4tzCcHa9XNULe0p6B0-7">
          <mxGeometry width="50" height="50" relative="1" as="geometry">
            <mxPoint x="58" y="268" as="sourcePoint" />
            <mxPoint x="118" y="308" as="targetPoint" />
          </mxGeometry>
        </mxCell>
        <mxCell id="9a4tzCcHa9XNULe0p6B0-4" value="" style="image;aspect=fixed;perimeter=ellipsePerimeter;html=1;align=center;shadow=0;dashed=0;spacingTop=3;image=img/lib/active_directory/web_server.svg;" vertex="1" parent="1">
          <mxGeometry x="320" y="193" width="40" height="50" as="geometry" />
        </mxCell>
        <mxCell id="9a4tzCcHa9XNULe0p6B0-5" value="&lt;b&gt;Client&lt;br&gt;(mobile)&lt;/b&gt;" style="text;html=1;strokeColor=none;fillColor=none;align=center;verticalAlign=middle;whiteSpace=wrap;rounded=0;" vertex="1" parent="1">
          <mxGeometry x="19" y="218" width="60" height="30" as="geometry" />
        </mxCell>
        <mxCell id="9a4tzCcHa9XNULe0p6B0-6" value="&lt;b&gt;Web Servers&lt;/b&gt;" style="text;html=1;strokeColor=none;fillColor=none;align=center;verticalAlign=middle;whiteSpace=wrap;rounded=0;" vertex="1" parent="1">
          <mxGeometry x="310" y="163" width="60" height="30" as="geometry" />
        </mxCell>
        <mxCell id="9a4tzCcHa9XNULe0p6B0-7" value="Load&lt;br&gt;Balancers" style="rounded=0;whiteSpace=wrap;html=1;" vertex="1" parent="1">
          <mxGeometry x="140" y="188" width="80" height="160" as="geometry" />
        </mxCell>
        <mxCell id="9a4tzCcHa9XNULe0p6B0-9" value="Load&lt;br&gt;Balancers" style="rounded=0;whiteSpace=wrap;html=1;" vertex="1" parent="1">
          <mxGeometry x="150" y="178" width="80" height="160" as="geometry" />
        </mxCell>
        <mxCell id="9a4tzCcHa9XNULe0p6B0-14" value="" style="image;aspect=fixed;perimeter=ellipsePerimeter;html=1;align=center;shadow=0;dashed=0;spacingTop=3;image=img/lib/active_directory/web_server.svg;" vertex="1" parent="1">
          <mxGeometry x="330" y="203" width="40" height="50" as="geometry" />
        </mxCell>
        <mxCell id="9a4tzCcHa9XNULe0p6B0-15" value="" style="endArrow=classic;html=1;rounded=0;entryX=0;entryY=1;entryDx=0;entryDy=0;" edge="1" parent="1" target="9a4tzCcHa9XNULe0p6B0-7">
          <mxGeometry width="50" height="50" relative="1" as="geometry">
            <mxPoint x="60" y="268" as="sourcePoint" />
            <mxPoint x="147" y="209" as="targetPoint" />
          </mxGeometry>
        </mxCell>
        <mxCell id="9a4tzCcHa9XNULe0p6B0-16" value="&lt;b&gt;&lt;font style=&quot;font-size: 10px;&quot;&gt;Connect&lt;/font&gt;&lt;/b&gt;" style="text;html=1;strokeColor=none;fillColor=none;align=center;verticalAlign=middle;whiteSpace=wrap;rounded=0;rotation=320;" vertex="1" parent="1">
          <mxGeometry x="84" y="198" width="50" height="50" as="geometry" />
        </mxCell>
        <mxCell id="9a4tzCcHa9XNULe0p6B0-17" value="&lt;b&gt;&lt;font style=&quot;font-size: 10px;&quot;&gt;Budget&lt;/font&gt;&lt;/b&gt;" style="text;html=1;strokeColor=none;fillColor=none;align=center;verticalAlign=middle;whiteSpace=wrap;rounded=0;rotation=40;" vertex="1" parent="1">
          <mxGeometry x="83.27" y="283" width="41" height="60" as="geometry" />
        </mxCell>
        <mxCell id="9a4tzCcHa9XNULe0p6B0-20" value="&lt;font style=&quot;font-size: 10px;&quot;&gt;View&lt;/font&gt;" style="text;html=1;strokeColor=none;fillColor=none;align=center;verticalAlign=middle;whiteSpace=wrap;rounded=0;" vertex="1" parent="1">
          <mxGeometry x="83.26999999999998" y="248" width="60" height="30" as="geometry" />
        </mxCell>
        <mxCell id="9a4tzCcHa9XNULe0p6B0-22" value="" style="endArrow=classic;html=1;rounded=0;exitX=1;exitY=0.5;exitDx=0;exitDy=0;entryX=0;entryY=0.5;entryDx=0;entryDy=0;" edge="1" parent="1" source="9a4tzCcHa9XNULe0p6B0-9" target="9a4tzCcHa9XNULe0p6B0-4">
          <mxGeometry width="50" height="50" relative="1" as="geometry">
            <mxPoint x="230" y="257" as="sourcePoint" />
            <mxPoint x="300" y="258" as="targetPoint" />
          </mxGeometry>
        </mxCell>
        <mxCell id="9a4tzCcHa9XNULe0p6B0-26" value="&lt;b&gt;App Servers&lt;/b&gt;" style="text;html=1;strokeColor=none;fillColor=none;align=center;verticalAlign=middle;whiteSpace=wrap;rounded=0;" vertex="1" parent="1">
          <mxGeometry x="540" y="178" width="140" height="30" as="geometry" />
        </mxCell>
        <mxCell id="9a4tzCcHa9XNULe0p6B0-27" value="" style="endArrow=classic;html=1;rounded=0;exitX=1;exitY=0.25;exitDx=0;exitDy=0;entryX=0;entryY=0.25;entryDx=0;entryDy=0;" edge="1" parent="1" source="9a4tzCcHa9XNULe0p6B0-14" target="9a4tzCcHa9XNULe0p6B0-74">
          <mxGeometry width="50" height="50" relative="1" as="geometry">
            <mxPoint x="350" y="255" as="sourcePoint" />
            <mxPoint x="420" y="258.5" as="targetPoint" />
          </mxGeometry>
        </mxCell>
        <mxCell id="9a4tzCcHa9XNULe0p6B0-32" value="Integration&lt;br&gt;Services" style="rounded=0;whiteSpace=wrap;html=1;" vertex="1" parent="1">
          <mxGeometry x="610" y="254.5" width="80" height="60" as="geometry" />
        </mxCell>
        <mxCell id="9a4tzCcHa9XNULe0p6B0-33" value="Notification&amp;nbsp;&lt;br&gt;Services" style="rounded=0;whiteSpace=wrap;html=1;" vertex="1" parent="1">
          <mxGeometry x="582.5" y="338" width="80" height="60" as="geometry" />
        </mxCell>
        <mxCell id="9a4tzCcHa9XNULe0p6B0-34" value="Notification&amp;nbsp;&amp;nbsp;&lt;br&gt;Services" style="rounded=0;whiteSpace=wrap;html=1;" vertex="1" parent="1">
          <mxGeometry x="590" y="343" width="80" height="60" as="geometry" />
        </mxCell>
        <mxCell id="9a4tzCcHa9XNULe0p6B0-39" value="" style="outlineConnect=0;dashed=0;verticalLabelPosition=bottom;verticalAlign=top;align=center;html=1;shape=mxgraph.aws3.queue;fillColor=#D9A741;gradientColor=none;" vertex="1" parent="1">
          <mxGeometry x="825" y="224" width="73.5" height="48" as="geometry" />
        </mxCell>
        <mxCell id="9a4tzCcHa9XNULe0p6B0-40" value="" style="endArrow=classic;html=1;rounded=0;exitX=1;exitY=0.5;exitDx=0;exitDy=0;" edge="1" parent="1" source="9a4tzCcHa9XNULe0p6B0-32" target="9a4tzCcHa9XNULe0p6B0-39">
          <mxGeometry width="50" height="50" relative="1" as="geometry">
            <mxPoint x="582.5" y="273" as="sourcePoint" />
            <mxPoint x="652.5" y="274" as="targetPoint" />
          </mxGeometry>
        </mxCell>
        <mxCell id="9a4tzCcHa9XNULe0p6B0-42" value="3rd Party Services" style="rounded=0;whiteSpace=wrap;html=1;" vertex="1" parent="1">
          <mxGeometry x="818.5" y="398" width="80" height="60" as="geometry" />
        </mxCell>
        <mxCell id="9a4tzCcHa9XNULe0p6B0-43" value="3rd Party Services" style="rounded=0;whiteSpace=wrap;html=1;" vertex="1" parent="1">
          <mxGeometry x="828.5" y="408" width="80" height="60" as="geometry" />
        </mxCell>
        <mxCell id="9a4tzCcHa9XNULe0p6B0-45" value="" style="endArrow=classic;html=1;rounded=0;entryX=0.5;entryY=0;entryDx=0;entryDy=0;" edge="1" parent="1" source="9a4tzCcHa9XNULe0p6B0-55" target="9a4tzCcHa9XNULe0p6B0-42">
          <mxGeometry width="50" height="50" relative="1" as="geometry">
            <mxPoint x="736" y="679" as="sourcePoint" />
            <mxPoint x="676.5" y="713" as="targetPoint" />
          </mxGeometry>
        </mxCell>
        <mxCell id="9a4tzCcHa9XNULe0p6B0-47" value="Accounts&lt;br&gt;Management" style="shape=cylinder3;whiteSpace=wrap;html=1;boundedLbl=1;backgroundOutline=1;size=15;" vertex="1" parent="1">
          <mxGeometry x="350" y="367" width="72" height="80" as="geometry" />
        </mxCell>
        <mxCell id="9a4tzCcHa9XNULe0p6B0-49" value="" style="endArrow=classic;html=1;rounded=0;entryX=1;entryY=0.5;entryDx=0;entryDy=0;entryPerimeter=0;exitX=0;exitY=0.892;exitDx=0;exitDy=0;exitPerimeter=0;" edge="1" parent="1" source="9a4tzCcHa9XNULe0p6B0-32" target="9a4tzCcHa9XNULe0p6B0-47">
          <mxGeometry width="50" height="50" relative="1" as="geometry">
            <mxPoint x="622.5" y="218" as="sourcePoint" />
            <mxPoint x="684" y="673" as="targetPoint" />
          </mxGeometry>
        </mxCell>
        <mxCell id="9a4tzCcHa9XNULe0p6B0-50" value="Metadata&lt;br&gt;Database" style="shape=cylinder3;whiteSpace=wrap;html=1;boundedLbl=1;backgroundOutline=1;size=15;" vertex="1" parent="1">
          <mxGeometry x="350" y="278" width="60" height="80" as="geometry" />
        </mxCell>
        <mxCell id="9a4tzCcHa9XNULe0p6B0-51" value="Budget&lt;br&gt;Database" style="shape=cylinder3;whiteSpace=wrap;html=1;boundedLbl=1;backgroundOutline=1;size=15;" vertex="1" parent="1">
          <mxGeometry x="350" y="470" width="72" height="80" as="geometry" />
        </mxCell>
        <mxCell id="9a4tzCcHa9XNULe0p6B0-53" value="" style="endArrow=classic;html=1;rounded=0;exitX=0;exitY=0.75;exitDx=0;exitDy=0;entryX=1;entryY=0;entryDx=0;entryDy=27.5;entryPerimeter=0;" edge="1" parent="1" source="9a4tzCcHa9XNULe0p6B0-77" target="9a4tzCcHa9XNULe0p6B0-50">
          <mxGeometry width="50" height="50" relative="1" as="geometry">
            <mxPoint x="545" y="663" as="sourcePoint" />
            <mxPoint x="530" y="525" as="targetPoint" />
          </mxGeometry>
        </mxCell>
        <mxCell id="9a4tzCcHa9XNULe0p6B0-55" value="Processing&lt;br&gt;queue" style="text;html=1;align=center;verticalAlign=middle;resizable=0;points=[];autosize=1;strokeColor=none;fillColor=none;" vertex="1" parent="1">
          <mxGeometry x="818.5" y="267" width="80" height="40" as="geometry" />
        </mxCell>
        <mxCell id="9a4tzCcHa9XNULe0p6B0-56" value="" style="image;aspect=fixed;html=1;points=[];align=center;fontSize=12;image=img/lib/azure2/general/Cache.svg;" vertex="1" parent="1">
          <mxGeometry x="220" y="486" width="64" height="64" as="geometry" />
        </mxCell>
        <mxCell id="9a4tzCcHa9XNULe0p6B0-57" value="" style="endArrow=classic;html=1;rounded=0;exitX=0;exitY=0;exitDx=0;exitDy=52.5;exitPerimeter=0;" edge="1" parent="1" source="9a4tzCcHa9XNULe0p6B0-51" target="9a4tzCcHa9XNULe0p6B0-56">
          <mxGeometry width="50" height="50" relative="1" as="geometry">
            <mxPoint x="553" y="460" as="sourcePoint" />
            <mxPoint x="462" y="515" as="targetPoint" />
          </mxGeometry>
        </mxCell>
        <mxCell id="9a4tzCcHa9XNULe0p6B0-58" value="&lt;b&gt;Cache&lt;/b&gt;" style="text;html=1;strokeColor=none;fillColor=none;align=center;verticalAlign=middle;whiteSpace=wrap;rounded=0;" vertex="1" parent="1">
          <mxGeometry x="190" y="475" width="60" height="30" as="geometry" />
        </mxCell>
        <mxCell id="9a4tzCcHa9XNULe0p6B0-59" value="" style="rounded=0;whiteSpace=wrap;html=1;" vertex="1" parent="1">
          <mxGeometry x="610" y="415" width="80" height="60" as="geometry" />
        </mxCell>
        <mxCell id="9a4tzCcHa9XNULe0p6B0-60" value="Budgeting&lt;br&gt;Services" style="rounded=0;whiteSpace=wrap;html=1;" vertex="1" parent="1">
          <mxGeometry x="620" y="420" width="80" height="60" as="geometry" />
        </mxCell>
        <mxCell id="9a4tzCcHa9XNULe0p6B0-61" value="" style="endArrow=classic;html=1;rounded=0;exitX=0;exitY=0.5;exitDx=0;exitDy=0;entryX=1;entryY=1;entryDx=0;entryDy=-15;entryPerimeter=0;" edge="1" parent="1" source="9a4tzCcHa9XNULe0p6B0-59" target="9a4tzCcHa9XNULe0p6B0-47">
          <mxGeometry width="50" height="50" relative="1" as="geometry">
            <mxPoint x="560" y="673" as="sourcePoint" />
            <mxPoint x="330" y="553" as="targetPoint" />
          </mxGeometry>
        </mxCell>
        <mxCell id="9a4tzCcHa9XNULe0p6B0-64" value="" style="endArrow=classic;html=1;rounded=0;entryX=0;entryY=0.5;entryDx=0;entryDy=0;exitX=1;exitY=0.5;exitDx=0;exitDy=0;" edge="1" parent="1" source="9a4tzCcHa9XNULe0p6B0-34" target="9a4tzCcHa9XNULe0p6B0-42">
          <mxGeometry width="50" height="50" relative="1" as="geometry">
            <mxPoint x="760" y="570" as="sourcePoint" />
            <mxPoint x="676.5" y="713" as="targetPoint" />
          </mxGeometry>
        </mxCell>
        <mxCell id="9a4tzCcHa9XNULe0p6B0-65" value="&lt;font style=&quot;font-size: 10px;&quot;&gt;Webhooks&lt;/font&gt;" style="text;html=1;align=center;verticalAlign=middle;resizable=0;points=[];autosize=1;strokeColor=none;fillColor=none;" vertex="1" parent="1">
          <mxGeometry x="670" y="363" width="70" height="30" as="geometry" />
        </mxCell>
        <mxCell id="9a4tzCcHa9XNULe0p6B0-69" value="" style="image;sketch=0;aspect=fixed;html=1;points=[];align=center;fontSize=12;image=img/lib/mscae/Content_Delivery_Network.svg;" vertex="1" parent="1">
          <mxGeometry x="24" y="426.5" width="50" height="23" as="geometry" />
        </mxCell>
        <mxCell id="9a4tzCcHa9XNULe0p6B0-70" value="&lt;b&gt;CDN&lt;/b&gt;" style="text;html=1;align=center;verticalAlign=middle;resizable=0;points=[];autosize=1;strokeColor=none;fillColor=none;" vertex="1" parent="1">
          <mxGeometry x="24" y="449.5" width="50" height="30" as="geometry" />
        </mxCell>
        <mxCell id="9a4tzCcHa9XNULe0p6B0-71" value="" style="endArrow=classic;html=1;rounded=0;exitX=-0.047;exitY=0.484;exitDx=0;exitDy=0;exitPerimeter=0;entryX=0.94;entryY=0.522;entryDx=0;entryDy=0;entryPerimeter=0;" edge="1" parent="1" source="9a4tzCcHa9XNULe0p6B0-56">
          <mxGeometry width="50" height="50" relative="1" as="geometry">
            <mxPoint x="390" y="406" as="sourcePoint" />
            <mxPoint x="72" y="438.506" as="targetPoint" />
          </mxGeometry>
        </mxCell>
        <mxCell id="9a4tzCcHa9XNULe0p6B0-72" value="" style="endArrow=classic;html=1;rounded=0;exitX=0.46;exitY=-0.065;exitDx=0;exitDy=0;exitPerimeter=0;entryX=0.333;entryY=1.1;entryDx=0;entryDy=0;entryPerimeter=0;" edge="1" parent="1" target="9a4tzCcHa9XNULe0p6B0-1">
          <mxGeometry width="50" height="50" relative="1" as="geometry">
            <mxPoint x="48" y="425.005" as="sourcePoint" />
            <mxPoint x="135" y="464" as="targetPoint" />
          </mxGeometry>
        </mxCell>
        <mxCell id="9a4tzCcHa9XNULe0p6B0-73" value="" style="endArrow=classic;html=1;rounded=0;entryX=1;entryY=1;entryDx=0;entryDy=-15;exitX=0;exitY=0.75;exitDx=0;exitDy=0;entryPerimeter=0;" edge="1" parent="1" source="9a4tzCcHa9XNULe0p6B0-59" target="9a4tzCcHa9XNULe0p6B0-51">
          <mxGeometry width="50" height="50" relative="1" as="geometry">
            <mxPoint x="390" y="475" as="sourcePoint" />
            <mxPoint x="440" y="425" as="targetPoint" />
          </mxGeometry>
        </mxCell>
        <mxCell id="9a4tzCcHa9XNULe0p6B0-76" value="" style="endArrow=classic;html=1;rounded=0;exitX=0;exitY=0.5;exitDx=0;exitDy=0;" edge="1" parent="1" source="9a4tzCcHa9XNULe0p6B0-33">
          <mxGeometry width="50" height="50" relative="1" as="geometry">
            <mxPoint x="509" y="341" as="sourcePoint" />
            <mxPoint x="420" y="420" as="targetPoint" />
          </mxGeometry>
        </mxCell>
        <mxCell id="9a4tzCcHa9XNULe0p6B0-77" value="User&amp;nbsp; &amp;nbsp; &lt;br&gt;&amp;nbsp; Management&lt;br&gt;Services" style="rounded=0;whiteSpace=wrap;html=1;" vertex="1" parent="1">
          <mxGeometry x="492.5" y="213" width="80" height="60" as="geometry" />
        </mxCell>
        <mxCell id="9a4tzCcHa9XNULe0p6B0-78" value="User Management&lt;br&gt;Services" style="rounded=0;whiteSpace=wrap;html=1;" vertex="1" parent="1">
          <mxGeometry x="502.5" y="223" width="80" height="60" as="geometry" />
        </mxCell>
        <mxCell id="9a4tzCcHa9XNULe0p6B0-79" value="Integration&lt;br&gt;Services" style="rounded=0;whiteSpace=wrap;html=1;" vertex="1" parent="1">
          <mxGeometry x="620" y="259.5" width="80" height="60" as="geometry" />
        </mxCell>
        <mxCell id="9a4tzCcHa9XNULe0p6B0-81" value="" style="endArrow=classic;html=1;rounded=0;exitX=0;exitY=0.5;exitDx=0;exitDy=0;entryX=1;entryY=0;entryDx=0;entryDy=52.5;entryPerimeter=0;" edge="1" parent="1" source="9a4tzCcHa9XNULe0p6B0-32" target="9a4tzCcHa9XNULe0p6B0-50">
          <mxGeometry width="50" height="50" relative="1" as="geometry">
            <mxPoint x="430" y="460" as="sourcePoint" />
            <mxPoint x="480" y="410" as="targetPoint" />
          </mxGeometry>
        </mxCell>
      </root>
    </mxGraphModel>
  </diagram>
</mxfile>
